<?xml version="1.0" standalone="no"?>
<!DOCTYPE svg PUBLIC "-//W3C//DTD SVG 20010904//EN"
 "http://www.w3.org/TR/2001/REC-SVG-20010904/DTD/svg10.dtd">
<svg version="1.0" xmlns="http://www.w3.org/2000/svg"
 width="696.000000pt" height="368.000000pt" viewBox="0 0 696.000000 368.000000"
 preserveAspectRatio="xMidYMid meet">
<metadata>
Created by potrace 1.15, written by Peter Selinger 2001-2017
</metadata>
<g transform="translate(0.000000,368.000000) scale(0.100000,-0.100000)"
fill="#000000" stroke="none">
<path d="M5691 3108 c-88 -279 -205 -635 -212 -644 -5 -6 -16 -36 -25 -65 -21
-73 -39 -99 -69 -99 -14 0 -25 -6 -25 -12 0 -7 -5 -20 -10 -28 -8 -13 -12 -12
-25 8 -9 12 -20 22 -26 22 -5 0 -9 -10 -9 -22 0 -13 -13 -49 -29 -81 -25 -51
-28 -66 -24 -117 l6 -59 -78 -103 c-110 -145 -129 -168 -137 -168 -4 0 -39 23
-77 51 -45 32 -68 56 -64 65 3 8 -5 18 -21 25 -15 7 -26 20 -26 31 0 11 -25
46 -55 77 l-56 58 33 7 c18 3 49 18 69 32 50 35 103 42 130 18 20 -18 21 -18
35 1 8 11 17 37 21 59 6 38 26 68 54 79 38 15 -76 52 -130 42 -39 -7 -115 -44
-176 -84 -83 -55 -121 -63 -171 -32 -26 16 -30 24 -26 49 l4 30 73 -5 c52 -4
74 -2 80 7 4 7 9 47 12 89 2 46 10 86 20 100 15 24 15 26 -15 52 -26 23 -30
34 -30 78 -1 29 -4 61 -7 72 -8 26 11 49 41 49 31 0 41 -20 19 -37 -15 -10
-15 -13 -4 -13 8 0 20 5 27 12 34 34 -13 87 -62 68 -35 -13 -33 -13 -39 10 -3
11 -13 20 -22 20 -9 0 -30 11 -47 25 -42 36 -129 59 -196 52 -81 -9 -175 -58
-212 -112 -43 -63 -55 -130 -40 -223 16 -100 16 -100 66 -123 42 -19 60 -49
29 -49 -8 0 -15 5 -15 11 0 5 -5 7 -10 4 -7 -4 -7 -12 0 -25 7 -13 7 -21 0
-25 -14 -9 -30 3 -30 21 0 9 -7 14 -17 12 -15 -3 -17 -13 -15 -53 4 -52 24
-78 55 -69 11 4 17 0 17 -10 0 -9 -9 -16 -20 -16 -14 0 -20 -7 -20 -22 -1 -19
-15 -29 -74 -56 -93 -43 -149 -96 -176 -170 -12 -31 -30 -71 -41 -88 -10 -17
-19 -42 -19 -55 0 -13 -15 -38 -32 -56 -25 -26 -33 -43 -34 -76 -1 -23 -18
-100 -37 -171 -27 -100 -34 -143 -31 -185 9 -100 35 -365 39 -393 3 -16 -2
-33 -10 -42 -14 -14 -62 -29 -81 -25 -20 3 -52 -14 -57 -31 -7 -27 24 -31 150
-18 80 8 125 9 158 1 55 -12 70 2 23 21 -18 8 -46 28 -62 45 l-29 30 8 93 c4
51 9 148 11 216 2 106 7 137 36 228 26 84 38 108 56 115 12 5 22 15 22 22 0 7
11 23 24 36 l23 22 48 -138 c27 -76 64 -172 82 -213 19 -41 57 -127 85 -190
125 -281 241 -380 447 -380 59 0 226 28 386 65 33 8 105 21 160 29 277 40 347
32 573 -67 70 -30 96 -37 104 -29 7 7 14 39 16 72 l4 60 77 -6 c44 -4 101 -1
136 5 80 15 272 41 306 41 26 0 33 -5 68 -46 11 -13 24 -15 62 -10 32 4 61 1
91 -9 73 -27 78 -28 78 -13 0 7 -20 25 -45 38 -63 34 -56 52 25 66 36 6 73 15
82 19 18 7 78 123 78 150 0 24 -25 17 -69 -19 -40 -33 -44 -35 -129 -36 -48 0
-109 -2 -137 -2 -27 -1 -89 3 -138 9 -78 9 -89 13 -109 39 -13 16 -41 47 -63
69 -44 43 -81 115 -204 390 -150 336 -217 445 -274 445 -12 0 -42 -10 -66 -21
-40 -17 -46 -18 -53 -4 -14 24 -50 18 -135 -25 -83 -41 -174 -124 -434 -395
-123 -129 -195 -176 -274 -183 -48 -4 -59 -1 -93 24 -55 41 -91 86 -113 144
-23 61 -24 89 -4 97 23 8 55 77 55 118 0 39 13 45 32 15 7 -11 20 -20 29 -20
9 0 22 -7 29 -16 22 -26 215 -150 245 -158 23 -6 34 -1 63 26 51 49 116 152
181 291 32 68 69 132 83 143 14 11 31 31 38 44 7 14 26 37 43 51 18 15 31 37
33 55 12 94 16 106 53 131 90 62 158 98 455 242 174 85 316 158 316 163 0 5
-3 7 -7 5 -15 -9 -666 -327 -670 -327 -2 0 -22 20 -46 44 -23 23 -50 48 -61
53 -18 10 -15 23 57 244 42 129 92 284 111 344 19 61 37 118 41 128 4 9 3 17
-2 17 -5 0 -19 -33 -32 -72z m245 -1718 c49 -56 150 -192 168 -228 13 -25 14
-37 5 -53 -6 -12 -9 -34 -7 -50 5 -33 2 -33 -88 -23 l-52 7 -17 116 c-9 64
-30 154 -45 201 -16 47 -31 94 -35 105 -4 13 1 10 17 -10 12 -16 37 -46 54
-65z"/>
<path d="M2385 2805 c-113 -59 -125 -66 -125 -74 0 -6 -16 -7 -35 -4 -21 3
-41 1 -50 -7 -18 -15 -20 -51 -3 -68 15 -15 38 -16 38 -2 0 6 -7 10 -16 10
-21 0 -14 34 9 38 37 7 47 -16 45 -99 -2 -73 -4 -80 -30 -99 -30 -22 -35 -41
-15 -58 8 -7 13 -39 15 -88 2 -101 8 -107 99 -102 l73 3 0 -32 c0 -41 -30 -63
-86 -63 -31 0 -56 10 -105 42 -136 88 -215 107 -297 72 l-37 -15 27 -15 c32
-17 48 -43 48 -77 0 -14 8 -35 18 -46 16 -21 19 -21 48 -6 36 17 74 8 134 -32
19 -12 45 -23 57 -23 13 0 23 -3 23 -7 0 -3 -22 -30 -50 -59 -27 -29 -50 -60
-50 -68 0 -9 -11 -23 -25 -32 -14 -9 -25 -24 -25 -33 0 -15 -109 -105 -137
-113 -6 -2 -59 59 -117 135 l-105 139 6 62 c5 56 3 68 -21 108 -14 25 -26 59
-26 76 0 36 -6 39 -31 16 -17 -15 -18 -14 -24 12 -3 16 -12 41 -19 55 -12 23
-12 28 5 42 40 35 34 159 -11 233 -18 28 -28 34 -55 34 -42 0 -57 -19 -63 -79
-6 -68 20 -153 58 -184 28 -24 43 -77 21 -77 -16 0 -21 -29 -10 -54 9 -18 7
-32 -7 -61 -9 -20 -23 -39 -31 -42 -20 -8 -16 -27 12 -53 14 -13 34 -42 45
-66 12 -23 28 -45 36 -48 8 -3 43 -65 78 -138 99 -209 183 -328 231 -328 27 0
168 84 234 139 27 23 55 41 62 41 8 0 20 9 27 20 18 30 29 24 30 -16 2 -54 11
-75 44 -110 l30 -32 -16 -53 c-9 -29 -28 -70 -43 -91 -37 -54 -113 -108 -152
-108 -74 0 -190 76 -306 201 -286 306 -370 377 -499 419 -35 11 -41 11 -52 -5
-12 -16 -16 -17 -54 -1 -64 25 -98 21 -134 -17 -35 -38 -174 -313 -262 -517
-70 -166 -120 -257 -148 -275 -12 -8 -37 -34 -55 -58 -32 -44 -33 -44 -114
-53 -45 -5 -147 -7 -227 -6 -143 3 -145 4 -182 33 -40 32 -68 38 -68 14 0 -29
49 -124 72 -139 13 -9 47 -19 74 -22 54 -7 84 -20 84 -34 0 -5 -22 -21 -50
-35 -35 -18 -48 -29 -44 -40 7 -18 2 -19 49 5 28 14 59 20 106 20 66 0 99 14
99 42 0 15 174 4 300 -18 61 -11 124 -15 176 -11 l80 5 12 -66 c6 -35 14 -68
19 -72 4 -4 58 14 118 40 139 59 230 83 325 82 90 0 282 -25 400 -52 104 -23
279 -57 340 -65 62 -9 162 11 229 45 98 49 161 132 248 322 35 79 75 167 89
195 29 62 124 325 124 343 0 7 7 10 16 6 9 -3 17 -6 20 -6 2 0 10 -16 18 -35
9 -21 20 -33 28 -30 9 4 24 -29 51 -107 33 -101 37 -124 37 -212 0 -55 5 -151
11 -214 l11 -114 -33 -34 c-18 -18 -48 -39 -66 -45 -47 -15 -43 -34 5 -24 49
11 115 11 235 1 95 -9 97 -9 97 13 0 12 -6 21 -15 21 -8 0 -15 4 -15 9 0 5
-23 11 -51 13 -28 3 -55 12 -61 19 -9 15 -9 26 17 274 20 195 16 258 -28 403
-19 62 -31 115 -26 118 16 9 10 22 -31 69 -22 26 -37 52 -34 60 3 8 -8 38 -24
67 -16 29 -33 68 -37 85 -10 49 -82 116 -174 162 -54 28 -79 45 -75 55 3 8 -3
16 -15 19 -31 8 -26 22 11 32 28 9 34 16 41 53 6 30 5 48 -4 58 -16 19 -26 18
-32 -6 -3 -11 -12 -20 -21 -20 -13 0 -15 6 -10 28 6 23 5 25 -8 15 -8 -7 -18
-10 -21 -6 -13 12 -7 31 11 37 30 11 65 34 72 48 24 44 28 207 6 259 -41 99
-126 151 -256 156 -76 4 -90 1 -135 -22z m-803 -219 c42 -80 20 -211 -30 -180
-50 31 -78 190 -38 219 25 19 44 9 68 -39z m-517 -1193 c-16 -43 -38 -136 -49
-208 -24 -145 -21 -142 -119 -144 -45 -1 -48 1 -42 20 4 11 2 33 -5 49 -15 36
-1 64 99 193 42 54 89 116 105 137 16 22 32 38 34 35 2 -2 -8 -39 -23 -82z"/>
</g>
</svg>
